<?xml version="1.0" encoding="utf-8"?>
<!-- Generator: Adobe Illustrator 21.0.0, SVG Export Plug-In . SVG Version: 6.00 Build 0)  -->
<svg version="1.1" id="Layer_1" xmlns="http://www.w3.org/2000/svg" xmlns:xlink="http://www.w3.org/1999/xlink" x="0px" y="0px"
	 viewBox="0 0 1030.1 359" style="enable-background:new 0 0 1030.1 359;" xml:space="preserve">
<style type="text/css">
	.st0{fill:#373737;}
	.st1{fill:#CC2828;}
</style>
<g>
	<path class="st0" d="M1024.1,202.2c-0.2,0.1-0.4,0.2-0.4,0.5c-2.4,17.3-5.4,34.6-8.1,51.8c-0.5,3.5-0.6,3.5-4,3.5
		c-3.9,0-7.8,0-11.8,0c-0.8,0-1.6,0-2.6,0c0.9-5.7,1.6-11.2,3.1-16.9c-1.1,0.4-1.3,1.2-1.8,1.7c-6.7,8.4-15,14.3-25.6,16.7
		c-7.4,1.7-14.8,1.3-21.9-1.7c-10.6-4.4-16.7-13.7-14.6-26.9c1.7-10.5,7.4-18.4,16.4-23.9c6.8-4.2,14.3-6.6,22.1-8.1
		c9.4-1.9,18.9-2.4,28.4-2.3c2.4,0,2.5,0,2.8-2.3c0.4-2.9,0.5-5.7,0.1-8.6c-1-6.7-5.6-11.1-12.9-12.2c-7.8-1.2-15.3,0.4-22.5,3.1
		c-4.1,1.5-8,3.6-11.7,5.9c-0.8-0.3-0.8-1-1.1-1.6c-1.4-3.4-2.7-6.8-4-10.3c-0.8-2-0.8-2,1.1-3.2c5.6-3.6,11.8-6,18.2-7.8
		c7.6-2.1,15.4-3,23.3-2.5c5.3,0.4,10.5,1.4,15.2,4c5.8,3.1,10,7.6,11.9,14c0,0.1,0.2,0.2,0.4,0.2
		C1024.1,184.3,1024.1,193.2,1024.1,202.2z M1003.5,210.6c-0.3-0.1-0.4-0.2-0.6-0.2c-8.2-0.1-16.5,0-24.6,1.5c-5,1-9.8,2.4-14.1,5.2
		c-3.9,2.5-6.7,5.8-8,10.4c-2.3,8.1,1.5,15,9.7,17.2c1.7,0.5,3.4,0.7,5.2,0.7c6.7,0.1,12.5-2.3,17.6-6.5
		c6.2-5.1,10.4-11.6,12.9-19.2C1002.6,216.6,1003.2,213.6,1003.5,210.6z"/>
	<path class="st1" d="M864.8,353.5c-44.4,0-88.8,0-133.2,0c-1.9,0-3.8-0.1-5.7-0.6c-8.1-2.3-13.4-10.3-12.1-18.6
		c2.2-14.4,4.5-28.9,6.8-43.3c1.3-7.8,7.5-13.4,15.4-14.1c1-0.1,2.1-0.1,3.1-0.1c88.2,0,176.4,0,264.6,0c2.2,0,4.3,0,6.4,0.6
		c8.2,2.3,13.6,10.3,12.3,18.7c-2.1,13.5-4.3,27-6.4,40.5c-0.2,1.4-0.4,2.9-0.7,4.3c-1.8,7.3-8.4,12.5-15.9,12.6
		c-7.4,0.1-14.7,0-22.1,0C939.8,353.5,902.3,353.5,864.8,353.5z M929.7,296.7c-0.4-0.1-0.6-0.3-0.9-0.3c-8,0-16,0-24,0
		c-1.2,0-1.5,0.5-1.6,1.5c-0.3,2.2-0.7,4.4-1,6.6c-1.1,7.2-3.1,14-6.9,20.3c-1,1.7-2.1,2.8-4.1,2.4c-1.3-0.3-1.7,0.5-1.8,1.6
		c-0.5,3.4-1.1,6.8-1.6,10.2c-0.2,1.2-0.7,2.5-0.4,4c2.5,0,5.1,0,7.6,0c0.7,0,0.9-0.4,1-1c0.2-1.6,0.5-3.1,0.8-4.7
		c0.3-1.9,0.3-1.9,2.2-1.9c6.2,0,12.5,0,18.7,0c0.5,0,1.1-0.1,1.7,0.3c0,2.4-0.9,4.8-0.9,7.4c2.4,0,4.6-0.1,6.9,0
		c1.2,0.1,1.5-0.6,1.7-1.5c0.3-2.3,0.7-4.6,1.1-6.9c0.3-2.1,0.6-4.1,1-6.2c0.2-0.9-0.2-1.3-1.1-1.3c-0.9,0-1.9,0.2-3-0.3
		C926.5,316.8,928.1,306.7,929.7,296.7z M959.2,335.2c2.8,0,5.4-0.1,8.1,0c1.3,0,1.6-0.5,1.7-1.6c1.3-8.8,2.8-17.5,4.2-26.2
		c0.5-3.2,1-6.3,1.5-9.5c0.2-1.1-0.1-1.6-1.3-1.6c-2.2,0.1-4.3,0.1-6.5,0c-1.2,0-1.9,0.4-2.6,1.3c-5.2,7.3-11,14.1-15.9,21.7
		c-0.1,0.2-0.3,0.4-0.8,0.4c1.6-7.7,2.6-15.4,3.9-23.3c-2.4,0-4.6,0-6.7,0c-2.8,0-2.8,0-3.2,2.8c-1.1,6.9-2.2,13.7-3.3,20.6
		c-0.8,5.1-1.6,10.2-2.4,15.5c3,0,5.9,0,8.8,0c0.8,0,1.1-0.5,1.5-1c5.3-7.3,11.2-14.2,16.1-21.8c0.2-0.3,0.3-0.8,0.9-0.6
		C961.5,319.5,960.6,327.3,959.2,335.2z M756.9,314.9c1.8-1.4,3.3-2.8,4.3-4.6c3.6-6.6,0.6-12.6-6.7-13.6
		c-5.6-0.8-11.2-0.2-16.7-0.4c-0.8,0-1.2,0.3-1.2,1.1c-0.1,0.7-0.3,1.4-0.4,2.1c-0.7,4.6-1.4,9.1-2.2,13.7
		c-1.1,7.2-2.3,14.5-3.4,21.7c0.2,0.1,0.4,0.2,0.5,0.2c5.5,0,11,0.1,16.5-0.1c2.7-0.1,5.3-0.9,7.7-2.3c3.7-2.2,5.7-5.5,6.1-9.7
		C761.8,319.4,760.4,316.6,756.9,314.9z M815.4,335.2c0.2-0.9-0.3-1.5-0.5-2.2c-2.1-5.4-4.1-10.7-6.3-16.1c-0.6-1.4-0.4-2.4,0.5-3.7
		c3.7-4.9,7.3-9.9,10.8-15c0.4-0.5,1-1,0.9-2c-2.7,0-5.3,0.1-7.9,0c-1.4-0.1-2.2,0.5-2.9,1.6c-2.6,3.9-5.4,7.7-8,11.7
		c-1,1.5-2.1,2-3.7,1.9c-1-0.1-1.5-0.3-1.3-1.4c0.3-1.6,0.5-3.3,0.8-5c0.4-2.8,0.9-5.6,1.3-8.7c-2.6,0-5,0-7.4,0c-2,0-2,0-2.3,2
		c-1.5,9.7-3.1,19.4-4.6,29.1c-0.4,2.5-0.7,5-1.2,7.7c2.7,0,5.1,0,7.6,0c1.8,0,2,0.1,2.1-2c0.1-0.9,0.3-1.7,0.4-2.6
		c0.5-3.2,1-6.5,1.5-9.7c0.1-0.6,0.1-1.3,0.9-1.5c2-0.5,3.3,0.1,4,2.1c1.5,4.1,3,8.1,4.4,12.2c0.3,0.9,0.6,1.6,1.8,1.5
		C809.3,335.2,812.4,335.2,815.4,335.2z M822.4,335.2c3,0,5.6,0,8.2,0c1,0,1.4-0.4,1.5-1.4c0.4-3.1,1-6.1,1.4-9.2
		c0.1-1.1,0.6-1.5,1.7-1.4c1.8,0.1,3.7,0,5.5,0c3.9,0,7.2-1.5,9.9-4.2c2.8-2.8,4.3-6.3,4.7-10.2c0.8-7.4-3.4-12.3-10.7-12.4
		c-4.7-0.1-9.4,0-14.1,0c-1.9,0-1.9,0-2.2,2c-1.2,7.6-2.5,15.3-3.7,22.9C823.8,325.8,823.2,330.4,822.4,335.2z M869.2,327.1
		c0.3-1.9,0.5-3.6,0.8-5.3c0.3-1.8,0.3-1.8,2-1.8c2.9,0,5.8,0,8.6,0c1.1,0,1.6-0.3,1.7-1.4c0.2-1.8,0.5-3.6,0.9-5.4
		c0.2-1-0.1-1.3-1.1-1.3c-1.9,0-3.8,0-5.8,0c-1.6,0-3.2,0.2-4.8-0.2c0.3-1.7,0.5-3.3,0.7-4.8c0.3-2.1,0.3-2.1,2.5-2.1
		c3.5,0,7,0,10.6,0c2.1,0,2.2,0.2,2.4-1.9c0.1-1.4,0.5-2.8,0.7-4.3c0.3-1.9,0.3-1.9-1.8-2c-6.8,0-13.6,0-20.4,0
		c-1.9,0-1.9,0-2.2,1.9c-1.4,8.7-2.8,17.3-4.2,26c-0.6,3.5-1.1,7.1-1.6,10.6c0.9,0.5,1.7,0.3,2.5,0.3c6.7,0,13.4,0,20.2,0
		c0.5,0,1,0,1.4,0c0.7,0,1-0.3,1.1-1c0.4-2.3,0.9-4.6,1-7.2C879.4,327.1,874.4,327.1,869.2,327.1z M987.5,335.2c2.8,0,5.2,0,7.7,0
		c1.5,0,1.8,0.3,2.1-1.7c1.4-9,2.8-18,4.2-27c0.3-2,0.3-2,2.4-2c2.8,0,5.6,0,8.4,0c0.8,0,1.4-0.2,1.5-1.1c0.3-2.3,0.7-4.5,1-6.7
		c-0.6-0.4-1.2-0.3-1.8-0.3c-9.8,0-19.5,0-29.3,0c-0.3,0-0.6,0-1,0c-0.7,0-1,0.2-1.1,0.9c-0.3,2.3-0.7,4.7-1.2,7.3
		c4.1,0,7.8,0,11.8,0C990.7,314.9,989.2,324.9,987.5,335.2z"/>
	<path class="st0" d="M620.2,120.8c-0.5,6.1-0.9,12.4-1.4,18.6c-0.6,7.3-1.2,14.5-1.7,21.8c-0.8,9.6-1.5,19.3-2.3,28.9
		c-0.5,6.8-1,13.6-1.6,20.3c-0.8,9.7-1.5,19.4-2.3,29.2c-0.4,5-0.8,10-1.1,15.1c-0.1,0.7-0.1,1.4-0.1,2.2c0,0.9-0.5,1.2-1.4,1.2
		c-1.5,0-3,0-4.6,0c-4,0-8,0-12,0c-1,0-1.4-0.2-1.3-1.4c0.7-7.7,1.3-15.5,1.9-23.2c0.5-6.7,1.1-13.4,1.6-20.1
		c0.7-8.9,1.5-17.8,2.2-26.8c0.5-6.2,1-12.4,1.5-18.6c0.4-4.3,1.1-8.6,1.8-12.8c0.2-0.9,0.4-1.9,0.3-2.8c-0.4,0-0.6,0.3-0.7,0.6
		c-7.9,16.4-17.7,31.6-27,47.2c-6.3,10.5-12.6,20.9-18.9,31.5c-0.8,1.3-1.6,1.9-3.2,1.8c-4.3-0.1-8.6,0-13,0c-2.1,0-2.1,0-2.7-2
		c-4.8-16.8-9.4-33.7-14.3-50.5c-2.6-9.1-4.9-18.4-6.3-27.8c-0.1-0.6-0.3-1.2-0.7-1.8c-0.6,3.8-1.2,7.6-1.8,11.3
		c-1.5,8.3-3.6,16.4-5.5,24.5c-5.4,22.9-10.8,45.9-16.2,68.8c-0.5,2.1-0.5,2.1-2.6,2.1c-5,0-10.1,0-15.1,0c-0.6,0-1.3,0.1-2.1-0.3
		c0.8-3.3,1.6-6.6,2.4-9.9c10.1-41.8,20.1-83.5,30.2-125.3c0.5-2.1,0.5-2.1,2.7-2.1c5.4,0,10.7,0,16.1,0c1.9,0,1.9,0,2.4,1.8
		c4.2,15.6,8.4,31.2,12.5,46.7c2.5,9.3,5,18.7,7.4,28c1.3,4.9,2.1,10,3,15c0.1,0.3,0.1,0.6,0.2,0.9c0.4,0.1,0.6-0.3,0.7-0.5
		c8.7-17.7,19.2-34.3,29-51.3c7.5-12.9,15.1-25.8,22.6-38.7c0.9-1.5,1.8-2.1,3.6-2c5.3,0.1,10.6,0,15.8,0.1
		C618.9,120.5,619.5,120.3,620.2,120.8z"/>
	<path class="st0" d="M10.6,258c0-1.2,0.6-1.8,0.9-2.5c22.7-44.6,45.3-89.1,68-133.7c0.8-1.6,1.6-2.2,3.4-2.2c7.4,0.1,14.7,0,22.1,0
		c2.1,0,2.2,0,2.6,2.1c2,10.4,4,20.7,6,31.1c3.3,17.1,6.6,34.2,9.9,51.3c3.1,16.2,6.2,32.5,9.3,48.7c0.3,1.6,0.6,3.3,0.9,4.8
		c-0.6,0.5-1.2,0.3-1.7,0.3c-7.4,0-14.7,0-22.1,0c-1.8,0-1.9,0-2.2-1.9c-1.9-10.5-3.7-21.1-5.6-31.6c-0.4-2-0.3-2-2.4-2
		c-14.7,0-29.4,0-44.1,0c-1.6,0-2.4,0.4-3.1,1.9c-5,10.5-10.2,21-15.2,31.5c-0.8,1.7-1.8,2.2-3.6,2.2c-6.8-0.1-13.6,0-20.4,0
		C12.4,258,11.6,258,10.6,258z M90.2,144.1c-0.9,0.7-1,1.5-1.3,2.2c-3.6,9-7.2,17.9-11.6,26.5c-4.6,9-8.9,18-13.4,27
		c-0.3,0.7-1,1.3-0.6,2.2c5.4,0,10.9,0,16.3,0c5.8,0,11.7,0,17.5,0c1.5,0,1.5-0.1,1.3-1.5c-0.5-2.8-1-5.7-1.5-8.5
		c-2.2-13.8-5.3-27.4-6.2-41.4C90.7,148.6,90.5,146.5,90.2,144.1z"/>
	<path class="st0" d="M392.1,260.4c-6.9,0-16-2-24.3-7c-11.3-6.9-18-17-19.5-30.1c-2.1-18.3,3.9-34.1,16.6-47.2
		c14.1-14.5,31.6-21,51.9-19.4c10.4,0.8,19.9,4.4,27.9,11.5c8.5,7.7,13.1,17.4,13.5,28.7c0.7,23.5-9.7,41.2-29.2,53.8
		C418.6,257.3,407.1,260.4,392.1,260.4z M433,203c-0.1-1.3-0.1-2.6-0.3-3.8c-0.9-9.8-7.5-17.8-16.9-20.5c-5.1-1.5-10.3-1.5-15.4-0.2
		c-19.3,4.8-29.7,24.5-26.7,41.3c1.7,9.5,7.3,15.8,16.7,18.5c5,1.5,10.1,1.4,15.2,0.2C421.5,234.5,432.8,219.9,433,203z"/>
	<path class="st0" d="M148.4,258c0.6-4,1.2-7.7,1.8-11.4c1.7-10.6,3.4-21.3,5.1-31.9c1.9-11.7,3.7-23.3,5.6-35
		c1-6.2,1.9-12.3,2.9-18.5c0.4-2.3,0.4-2.3,2.8-2.3c9,0,18.1,0,27.1,0c5.9,0,11.8,0,17.8,0c5.1,0,10,0.7,14.8,2.4
		c2.1,0.8,4.1,1.8,5.9,3.1c6,4.3,8.4,10.3,7.8,17.5c-0.9,10.7-6.2,18.8-15.8,23.9c-0.2,0.1-0.4,0.2-0.6,0.4c0.5,0.7,1.4,0.7,2.1,1
		c7.4,3.1,11.4,8.7,11.6,16.6c0.3,11.6-4.6,20.7-14.3,27.1c-5.5,3.6-11.7,5.4-18.2,6.4c-3.3,0.5-6.7,0.6-10,0.6
		c-14.6,0-29.1,0-43.7,0C150.4,258,149.6,258,148.4,258z M175.9,241.5c7.1,0,14,0,20.9,0c1,0,2.1-0.2,3.1-0.5
		c6.6-1.6,11.1-5.5,12.4-12.4c1.2-6.1-1.6-10.7-7.6-12.6c-1.6-0.5-3.3-0.8-4.9-0.8c-6.1,0-12.1,0-18.2-0.1c-1.3,0-1.6,0.5-1.8,1.6
		c-0.5,3.8-1.2,7.6-1.8,11.4C177.3,232.5,176.6,236.9,175.9,241.5z M182.6,199.4c0.3,0.2,0.5,0.3,0.6,0.3c5.4,0,10.9,0.2,16.3-0.1
		c9.1-0.5,14.5-5.9,15.1-14.6c0.3-4.5-1.9-7.7-6.2-9.1c-1.1-0.4-2.3-0.6-3.5-0.7c-5.5-0.3-11-0.1-16.5-0.1c-2,0-2,0-2.3,2.1
		c-0.7,4.7-1.5,9.5-2.3,14.2C183.4,194.1,183,196.8,182.6,199.4z"/>
	<path class="st0" d="M715.8,232.5c1.9,4.5,3.6,8.7,5.4,13c0.3,0.8,0,1.2-0.5,1.6c-1.4,1-2.8,2.1-4.3,3c-12.5,7.6-26,11.3-40.7,10.1
		c-11.6-1-21.9-5.2-29.7-14.3c-5.4-6.3-8.3-13.7-9.4-21.9c-2.4-18.3,5.5-44.7,27.9-58.5c10.8-6.7,22.6-9.4,35.3-8.3
		c8.3,0.8,15.7,3.7,21.5,9.8c5.1,5.3,7.7,11.9,8.8,19c1.2,7.6,0.7,15.2-1.5,22.5c-0.9,3.1-0.2,2.7-3.5,2.7c-22.1,0-44.1,0-66.2,0
		c-2.8,0-2.9,0-3,2.8c-0.2,3.6,0.1,7.2,1.1,10.7c3.1,11,10.8,16.9,21.7,18.7c10.5,1.8,20.1-1,29.3-5.9
		C710.7,236.1,713.1,234.4,715.8,232.5z M659.3,197.5c0.9,0,1.7,0,2.5,0c3.8,0,7.5,0,11.3,0c12.2,0,24.4,0,36.7,0
		c2.1,0,2.1,0,2.3-2.1c0.2-2.7,0.1-5.4-0.4-8.1c-1.6-8.7-7.6-14.3-16.3-15.5c-4.5-0.6-8.9-0.1-13.2,1.3
		c-10.2,3.4-16.9,10.5-21.3,20.1C660.2,194.5,659.5,195.8,659.3,197.5z"/>
	<path class="st0" d="M287.4,180.3c-0.9-0.5-1.8-0.3-2.7-0.3c-9,0-17.9,0-26.9,0c-0.6,0-1.1,0-1.7,0c-1,0.1-1.2-0.5-1.1-1.3
		c0.4-2.3,0.7-4.6,1.1-6.9c0.6-3.8,1.3-7.6,1.8-11.4c0.2-1.3,0.7-1.7,1.8-1.6c0.4,0,0.8,0,1.2,0c28.2,0,56.3,0,84.5,0
		c0.9,0,1.7,0,2.7,0c0.3,1.9-0.3,3.6-0.6,5.3c-0.7,4.6-1.5,9.1-2.2,13.7c-0.3,2.1-0.3,2.1-2.5,2.1c-9.3,0-18.6,0-27.8,0
		c-2.9,0-2.8,0-3.3,2.9c-1.8,11.6-3.6,23.2-5.5,34.8c-1.7,10.7-3.4,21.3-5.1,31.9c-0.4,2.2-0.7,4.4-1,6.6c-0.1,1.2-0.6,1.8-1.9,1.8
		c-7.1-0.1-14.2,0-21.4,0c-1.7,0-1.7,0-1.4-1.6c3.1-19.5,6.2-39,9.3-58.4c0.9-5.4,1.7-10.7,2.5-16.1
		C287.4,181.3,287.4,180.8,287.4,180.3z"/>
	<path class="st0" d="M797.8,258c2.2-13.9,4.4-27.5,6.5-41c-1-0.2-1.6,0.5-2.3,0.8c-8.9,4.1-18.2,6.4-28.1,6
		c-4.5-0.2-8.9-0.9-13.1-2.7c-7.5-3.3-11.5-9.1-12.8-17c-0.8-5.1-0.1-10.2,0.7-15.3c1.4-8.8,2.8-17.5,4.2-26.3
		c0.5-3.1,0.4-3.1,3.6-3.1c4.3,0,8.6,0,13,0c0.8,0,1.6-0.2,2.5,0.3c-0.7,4.4-1.4,8.7-2.1,13.1c-1,6.2-1.9,12.3-2.8,18.5
		c-0.3,2.2-0.2,4.3,0.3,6.4c0.8,3.8,3.1,6.4,6.7,7.9c3.5,1.5,7.3,1.8,11.1,1.7c7.2-0.3,14-2.5,20.3-6c1.2-0.7,1.7-1.4,1.9-2.8
		c1.9-12.3,3.8-24.6,5.8-36.9c0.4-2.5,0-2.2,2.5-2.2c5,0,9.9,0,14.9,0c0.6,0,1.1,0,1.8,0c0.1,2.2-0.4,4.2-0.7,6.2
		c-1.8,11.8-3.7,23.7-5.6,35.5c-2,12.6-4,25.2-6,37.9c-0.9,5.6-1.7,11.2-2.6,16.8c-0.3,2.2-0.3,2.2-2.5,2.2c-5,0-9.9,0-14.9,0
		C799.2,258,798.7,258,797.8,258z"/>
	<path class="st0" d="M869.6,257.7c1.5-9.5,3-19,4.5-28.4c1.7-10.6,3.4-21.1,5-31.7c1-6.5,2.1-13.1,3.1-19.6
		c0.1-0.5,0.2-0.9,0.2-1.4c0.1-0.6-0.2-0.9-0.8-0.9c-0.6,0-1.3,0-1.9,0c-9.5,0-19,0-28.6,0c-0.9,0-1.8,0.1-2.7-0.2
		c0-2.3,0.6-4.4,0.9-6.6c0.4-2.6,0.9-5.2,1.2-7.8c0.2-1.4,0.8-1.8,2-1.6c0.2,0,0.5,0,0.7,0c27.5,0,55,0,82.5,0c0.7,0,1.4,0,2.3,0
		c0.3,2.1-0.4,3.9-0.6,5.7c-0.3,2.9-0.9,5.7-1.3,8.5c-0.3,1.9-0.3,1.9-2.2,1.9c-9.8,0-19.5,0-29.3,0c-0.6,0-1.1,0-1.7,0
		c-1.1-0.1-1.7,0.2-1.9,1.5c-1,7-2.2,13.9-3.3,20.8c-1.8,11.6-3.7,23.2-5.5,34.8c-1.2,7.7-2.4,15.3-3.6,23c-0.4,2.3-0.3,2.3-2.6,2.3
		c-4.8,0-9.6,0-14.4,0C871.1,258,870.5,258.1,869.6,257.7z"/>
	<path class="st0" d="M155,309.7c-25.4,0-50.9,0-76.3,0c-1.3,0-2.6,0-3.8-0.4c-2-0.6-2.9-1.8-2.9-3.9c0-2.1,0.9-3.3,2.8-4
		c1.2-0.4,2.4-0.4,3.6-0.4c7.8,0,15.7,0,23.5,0c42.9,0,85.9,0,128.8,0c1.3,0,2.6,0,3.8,0.1c2.5,0.3,3.8,1.8,3.9,4.1
		c0.1,2.3-1.1,3.6-3.5,4.2c-1,0.3-2.1,0.3-3.1,0.3C206.2,309.6,180.6,309.6,155,309.7C155,309.6,155,309.7,155,309.7z"/>
	<path class="st0" d="M450.8,335.3c4-5.7,7.6-10.9,11.3-16.1c0.9-1.3,2.3-2.6,2.5-4c0.2-1.4-0.9-3-1.5-4.5c-1.5-4-3.1-8.1-4.6-12.1
		c-0.2-0.5-0.5-1-0.4-1.9c2.1,0,4.3,0,6.5,0c1,0,1.1,0.8,1.3,1.5c1.5,4.1,2.9,8.1,4.4,12.2c0.3,0.7,0.3,1.9,1,2.1
		c1.1,0.3,2.4,0.2,3.6,0.1c0.9-0.1,0.8-1.1,0.9-1.8c0.5-3.2,1-6.5,1.5-9.7c0.1-0.7,0.2-1.4,0.4-2.1c0.4-2.2,0.4-2.2,2.7-2.2
		c1.5,0,3,0,4.7,0c-0.8,5.4-1.6,10.5-2.4,15.5c1,0.5,1.9,0.2,2.7,0.3c1.2,0.2,1.9-0.3,2.5-1.3c2.8-4.3,5.8-8.4,8.6-12.7
		c0.9-1.4,1.9-1.9,3.5-1.8c1.7,0.1,3.3,0,5,0c0,1-0.6,1.4-1,2c-3.4,4.9-6.9,9.8-10.4,14.7c-0.9,1.3-1.1,2.4-0.5,3.9
		c2.1,5.2,4.1,10.4,6.1,15.6c0.3,0.7,0.8,1.4,0.6,2.4c-2.2,0-4.5,0-6.7,0c-1.1,0-1.2-0.8-1.5-1.5c-1.6-4.5-3.3-9-4.9-13.5
		c-0.2-0.6-0.2-1.6-1.1-1.7c-1.2-0.1-2.4-0.1-3.6,0.1c-0.7,0.1-0.6,1.1-0.7,1.7c-0.6,3.3-1,6.6-1.6,9.9c-0.1,0.9-0.3,1.7-0.4,2.6
		c-0.4,2.4-0.4,2.4-2.7,2.4c-1.4,0-2.9,0-4.6,0c0.6-5.7,1.8-11.1,2.5-16.5c-1-0.5-1.9-0.2-2.7-0.3c-1.2-0.2-1.9,0.4-2.5,1.4
		c-3,4.6-6.2,9.1-9.2,13.7c-0.8,1.3-1.7,1.9-3.3,1.8C454.9,335.2,453.1,335.3,450.8,335.3z"/>
	<path class="st0" d="M409.3,329.5c-0.4,2.6-0.7,5.1-1.1,7.7c-0.2,1.5-0.6,3-0.7,4.5c-0.1,0.9-0.5,1.2-1.4,1.2c-1.6,0-3.2,0-4.9,0
		c-0.2-2.1,0.4-4,0.7-6c0.2-1.7,0.3-1.7-1.5-1.7c-7.2,0-14.4,0-21.6,0c-1.2,0-1.7,0.3-1.8,1.6c-0.1,1.6-0.6,3.1-0.7,4.7
		c-0.1,1.2-0.6,1.5-1.7,1.4c-1.7-0.1-3.3,0-5.1,0c0.7-4.4,1.4-8.5,2-12.6c0.1-0.8,0.5-1.3,1.2-1.1c2.8,0.7,4-1.3,5.2-3.2
		c3.5-5.5,5.4-11.6,6.6-17.9c0.6-3.1,1-6.3,1.5-9.5c0.3-2.1,0.3-2.1,2.4-2.1c6.7,0,13.4,0,20.2,0c1.9,0,1.9,0,1.6,2
		c-1.5,9.4-3,18.8-4.5,28.2c0,0.2,0,0.3-0.1,0.5c-0.2,1.9-0.2,1.9,1.6,1.9C407.7,329.3,408.4,329.1,409.3,329.5z M383.2,329.3
		c4.7,0,9,0,13.4,0c1.2,0,1.5-0.5,1.6-1.5c0.2-1.5,0.5-3,0.7-4.5c1-6.3,2-12.6,3-18.9c0.3-1.6,0.2-1.7-1.6-1.7c-1.8,0-3.5,0-5.3,0
		c-3.2,0-3.1,0-3.6,3.1c-1.3,8-3.4,15.7-8,22.6C383.4,328.5,383.4,328.7,383.2,329.3z"/>
	<path class="st0" d="M178.7,123.9c0.1-10.3,10.4-17.4,20-13.8c2.1,0.8,3.5,0.5,5.1-1c12.5-10.8,25.1-21.6,37.7-32.3
		c0.7-0.6,1.5-2,2.3-1.2c0.9,1-0.6,1.7-1.3,2.3c-10.1,9.8-20.2,19.6-30.3,29.4c-1.8,1.8-3.6,3.6-5.5,5.3c-1.4,1.3-1.9,2.8-1.2,4.5
		c3.4,9.3-5.1,18.3-12.5,19C183.6,137.1,178.4,130.6,178.7,123.9z"/>
	<path class="st0" d="M353.3,295.8c8.1,0,14.5,4.6,16.4,11.8c1.1,4.2,0.7,8.4-0.8,12.5c-3.4,9.5-12.6,16-22.4,15.9
		c-9.9-0.1-16.9-7.3-16.7-17.1C330,306.3,340.7,295.8,353.3,295.8z M337.2,318c0,8.4,6.8,13.4,14.8,10.8
		c7.2-2.4,12.1-10.7,10.7-18.1c-0.9-4.6-4.8-8.1-9.5-8.3C344.7,302,337.3,309.2,337.2,318z"/>
	<path class="st0" d="M709.4,312.5c-0.2,12.2-10,22.6-21.9,23.6c-11.5,0.9-19.7-7.6-18.5-19.1c1.2-12.1,12.1-21.5,24.2-21.1
		c8,0.3,14.1,5.1,15.8,12.6C709.3,309.8,709.3,311.3,709.4,312.5z M691.2,302.4c-1.1,0-2.2,0.1-3.4,0.4c-6.8,1.9-11.7,8.5-11.5,15.6
		c0.2,8.5,7.4,13.2,15.4,10.2c6.4-2.5,10.8-9.5,10.3-16.3C701.5,306.5,697.2,302.5,691.2,302.4z"/>
	<path class="st0" d="M623,314.8c5.4,3.9,6.1,10.1,1.8,15.3c-2.5,3.1-5.9,4.6-9.8,5c-5.2,0.4-10.4,0.1-15.6,0.2
		c-1.1,0-1.1-0.5-1-1.4c1.3-8.3,2.6-16.5,4-24.8c0.6-3.6,1.2-7.2,1.7-10.9c0.2-1.2,0.6-1.6,1.8-1.6c4.5,0.1,8.9,0,13.4,0.1
		c1,0,1.9,0.1,2.8,0.4c5.3,1.4,7.7,5.4,6.2,10.8C627.5,310.8,625.8,313.1,623,314.8z M606.4,329.2c2.9,0,5.5,0.2,8.1,0
		c3.3-0.3,5.3-2.5,5.8-5.7c0.4-2.8-1.2-4.9-4-5.1c-2.3-0.1-4.6,0-6.9-0.1c-0.9,0-1.4,0.2-1.4,1.2c0,0.6-0.2,1.1-0.3,1.6
		C607.2,323.7,606.8,326.4,606.4,329.2z M609.1,312.4c2.6,0.2,5,0.3,7.3,0c2.6-0.3,4.3-2.1,4.8-4.6c0.6-2.7-0.7-4.7-3.4-4.9
		c-2.1-0.2-4.1-0.1-6.2-0.1c-0.6,0-1.1,0.2-1.2,0.9C610,306.4,609.5,309.3,609.1,312.4z"/>
	<path class="st0" d="M280.4,302.7c-3,0-5.6,0-8.2,0c-2.3,0-4.6,0-7,0c-1.9,0-1.9,0-2.2,1.9c-0.9,5.4-1.7,10.7-2.5,16.1
		c-0.7,4.3-1.4,8.7-2,13c-0.2,1.1-0.6,1.7-1.8,1.6c-1.7-0.1-3.5,0-5.4,0c0.2-3.2,0.8-6.2,1.3-9.1c1.3-8.8,2.8-17.7,4.2-26.5
		c0.5-3,0.4-3,3.5-3c8.6,0,17.1,0,25.7,0c0.8,0,1.6,0,2.5,0c0,2.7-0.7,5-1,7.4c-1.5,9.8-3.1,19.6-4.7,29.3c-0.3,1.8-0.3,1.8-2.2,1.8
		c-1.7,0-3.3,0-5.1,0C277,324.3,278.6,313.6,280.4,302.7z"/>
	<path class="st0" d="M590.8,335.3c-2.2,0-4.3,0-6.3,0c-0.9,0-0.9-0.6-1.1-1.3c-0.4-2.4-0.9-4.9-1.3-7.3c-0.1-0.9-0.5-1.2-1.4-1.2
		c-3.8,0-7.5,0-11.3,0c-0.9,0-1.3,0.4-1.6,1.1c-1.2,2.5-2.4,4.9-3.5,7.3c-0.5,1-1,1.5-2.2,1.4c-1.8-0.1-3.6,0-5.4,0
		c-0.1-1,0.4-1.6,0.7-2.2c5.8-11.5,11.7-23,17.5-34.6c0.7-1.4,1.5-2.1,3.1-1.9c1.2,0.1,2.4,0,3.6,0c1.8,0,1.9,0,2.2,1.7
		c0.7,3.4,1.3,6.7,1.9,10.1c1.6,8.1,3.1,16.3,4.7,24.4C590.6,333.6,590.7,334.3,590.8,335.3z M578.5,304.3c-2,5.3-5,10-7.1,15.3
		c3.4,0,6.4,0,9.6,0C580.1,314.3,579.2,309.4,578.5,304.3z"/>
	<path class="st0" d="M537.8,335.3c-2.3,0-4.3,0-6.4,0c-1.1,0-1-0.8-1.2-1.5c-0.4-2.2-0.8-4.4-1.1-6.6c-0.2-1.3-0.6-1.8-2-1.7
		c-3.4,0.1-6.9,0.1-10.3,0c-1.1,0-1.7,0.3-2.2,1.4c-1.1,2.5-2.4,4.9-3.5,7.3c-0.4,0.8-0.9,1.2-1.8,1.2c-1.8-0.1-3.7,0-5.4,0
		c-0.5-0.8,0.1-1.3,0.3-1.8c5.9-11.7,11.9-23.5,17.9-35.2c0.6-1.1,1.2-1.7,2.5-1.6c1.5,0.1,3,0.1,4.5,0c1,0,1.3,0.4,1.5,1.3
		c1,5.5,2.1,11,3.2,16.4C535.2,321.2,536.5,328,537.8,335.3z M525.8,304.1c-0.5,0.3-0.7,0.7-0.8,1c-1.4,3.7-3.2,7.1-4.9,10.6
		c-0.5,1-1,2-1.5,3c-0.3,0.6-0.1,0.9,0.6,0.9c2.9,0,5.7,0,8.8,0C527.3,314.4,525.9,309.4,525.8,304.1z"/>
	<path class="st0" d="M447.2,335.3c-2.2,0-4.2,0-6.2,0c-0.8,0-1.1-0.4-1.2-1.1c-0.4-2.4-0.9-4.9-1.3-7.3c-0.1-0.9-0.4-1.4-1.5-1.4
		c-3.7,0-7.4,0-11,0c-1,0-1.4,0.4-1.8,1.2c-1.1,2.4-2.4,4.7-3.4,7.1c-0.5,1.1-1.1,1.6-2.3,1.5c-1.7-0.1-3.5,0-5.2,0
		c-0.5-0.8,0.1-1.2,0.3-1.6c5.9-11.7,11.9-23.5,17.9-35.2c0.7-1.3,1.4-2,2.9-1.8c1.3,0.1,2.6,0.1,3.8,0c1.2-0.1,1.9,0.3,2.1,1.6
		c2.2,11.8,4.5,23.7,6.8,35.5C447.2,334.1,447.2,334.5,447.2,335.3z M435,304.3c-2,5.2-5,10-7.2,15.2c3.4,0,6.5,0,9.7,0
		C436.7,314.4,435.6,309.4,435,304.3z"/>
	<path class="st0" d="M293.7,335.3c0.7-4.3,1.3-8.3,1.9-12.3c1.2-7.7,2.4-15.4,3.7-23.2c0.1-0.4,0.1-0.8,0.2-1.2
		c0.4-1.9,0.4-1.9,2.2-1.9c4.7,0,9.4-0.1,14.1,0.1c4.7,0.1,8.1,2.8,9.1,7.1c1.8,7.6-3.2,16.9-12.2,18c-2.6,0.3-5.3,0.1-7.9,0.2
		c-1.9,0-1.9,0-2.2,2c-0.5,3.2-1.1,6.5-1.5,9.7c-0.2,1.3-0.7,1.7-2,1.7C297.5,335.2,295.8,335.3,293.7,335.3z M307.7,315.8
		c1.3,0,2.2,0.1,3,0c4-0.3,6.5-2.6,7.2-6.5c0.7-3.8-1.1-6.3-4.9-6.6c-1.8-0.1-3.7,0-5.5-0.1c-1.2-0.1-1.5,0.4-1.7,1.5
		c-0.4,2.6-0.9,5.2-1.2,7.8c-0.2,1.2-1.1,2.7-0.2,3.6C305.2,316.4,306.8,315.7,307.7,315.8z"/>
	<path class="st0" d="M642.6,335c1.5-9.4,3-18.8,4.4-28.2c0.1-0.7,0.2-1.4,0.3-2.1c0.3-2,0.3-2-1.9-2c-3.3,0-6.7,0-10.1,0
		c-0.3-1.9,0.4-3.6,0.5-5.3c0-0.5,0.4-0.7,0.8-0.7c0.5,0,1,0,1.4,0c9.3,0,18.7,0,28,0c0.7,0,1.4-0.2,2.1,0.3c0,0.3,0,0.6-0.1,1
		c-0.4,1.5,0.1,3.6-1.1,4.5c-1.2,0.9-3.1,0.2-4.7,0.3c-2.1,0-4.2,0.1-6.2,0c-1.1,0-1.5,0.4-1.7,1.5c-1.4,9.3-2.9,18.6-4.4,27.9
		c-0.7,4,0.2,3.1-3.7,3.2C645.2,335.3,643.9,335.5,642.6,335z"/>
	<path class="st0" d="M30.5,301c5.8,0,11.7,0,17.5,0c0.9,0,1.8,0,2.6,0.1c2.8,0.3,4.1,1.9,3.9,4.7c-0.1,1.9-0.9,2.9-2.7,3.5
		c-1,0.3-2,0.4-3.1,0.4c-12.2,0-24.3,0-36.5,0c-1.2,0-2.4-0.1-3.6-0.4c-1.8-0.5-2.6-1.5-2.8-3.4c-0.1-2.3,0.6-3.6,2.3-4.3
		c1.1-0.5,2.3-0.5,3.5-0.5C18,301,24.3,301,30.5,301z"/>
	<path class="st1" d="M247.4,46.9c-0.1-0.7,0.2-1.4,0.6-2c0.7-1.1,1.3-2.2,2.1-3.2c4.4-5.3,8.5-10.8,12.6-16.3
		c1.6-2.1,2.5-2.2,4.6-0.7c0.9,0.7,1.8,1.3,2.7,2c1,0.8,1.2,1.7,0.6,3c-0.6,1.2-1.3,2.2-2.2,3.2c-4.4,5.3-8.9,10.7-13.3,16.1
		c-2.1,2.5-2.3,2.6-5.1,1c-0.5-0.3-1-0.5-1.5-0.8C247.8,48.6,247.4,47.8,247.4,46.9z"/>
	<path class="st1" d="M163.4,13.3c0.8,0,1.3,0.4,1.8,1c0.7,0.8,1,1.8,1.3,2.8c1.8,6.8,3.7,13.5,5.6,20.3c0.4,1.5,0.2,2.2-1.2,3
		c-1.3,0.8-2.8,1.2-4.2,1.7c-1.1,0.3-1.8-0.4-2.3-1.2c-0.7-1.2-1.2-2.5-1.5-3.8c-1.6-5.8-3.8-11.4-5.7-17c-0.2-0.5-0.4-1.1-0.5-1.6
		c-0.4-1.3,0.1-2.3,1.2-2.8c1.7-0.8,3.7-1,5.2-2.3C163,13.4,163.2,13.4,163.4,13.3z"/>
	<path class="st1" d="M199.4,29.4c0.5-6.9,0.9-13.7,1.4-20.6c0.2-2.4,1.1-3.2,3.6-3.2c1,0,2.1,0,3.1-0.1c2.1-0.2,3.2,0.8,3,3
		c-0.2,2.9-0.7,5.7-1.1,8.6c-0.6,4.4-1.2,8.9-1.8,13.3c-0.1,0.6-0.1,1.1-0.3,1.7c-0.5,2-1.2,2.5-3.2,2.3c-1.1-0.1-2.2-0.2-3.3-0.2
		c-1.1,0-1.6-0.6-1.6-1.7C199.2,31.4,199.4,30.4,199.4,29.4C199.5,29.4,199.5,29.4,199.4,29.4z"/>
	<path class="st1" d="M87.2,94.1c4.4,0.4,8.6,1.6,12.8,2.7c2.9,0.7,5.7,1.4,8.7,1.8c2.5,0.3,3.1,1.1,3,3.6c-0.2,3.9-1.9,5.3-5.7,4.6
		c-6.7-1.2-13.5-2.4-20.2-3.6c-0.5-0.1-1.1-0.2-1.6-0.4c-0.9-0.3-1.4-1-1.4-2c0.2-1.8,0.6-3.6,1.2-5.3C84.5,94,85.8,94,87.2,94.1z"
		/>
	<path class="st1" d="M108.4,53.5c1.1,0.3,1.8,0.8,2.6,1.4c4.5,3.4,9.1,6.8,13.6,10.3c1.1,0.9,2.3,1.7,3.4,2.6
		c1.4,1.1,1.5,1.5,0.7,3c-0.7,1.4-1.7,2.7-2.9,3.7c-1.3,1.1-1.7,1.1-3.2,0.1c-2.3-1.6-4.5-3.3-6.8-4.9c-3.4-2.4-6.8-4.7-10.2-7.1
		c-0.7-0.5-1.3-0.9-1.9-1.5c-0.5-0.5-0.8-1.2-0.4-2c1.2-2,2.6-3.8,4.3-5.4C107.8,53.6,108.1,53.5,108.4,53.5z"/>
	<path class="st1" d="M124.6,37.1c1,0,1.5,0.7,2,1.3c1.8,2.1,3.5,4.1,5.3,6.2c2.7,3.2,5.5,6.5,8.2,9.7c0.4,0.5,0.8,1,1.2,1.5
		c0.7,1.2,0.6,2-0.5,2.9c-1.1,0.9-2.4,1.6-3.3,2.8c-0.5,0.6-1.3,0.7-1.9,0.2c-0.6-0.5-1.2-1-1.8-1.6c-4.5-4.7-9-9.5-13.5-14.3
		c-0.3-0.3-0.6-0.6-0.8-0.9c-1.5-1.9-1.4-3,0.5-4.4c1.1-0.8,2.1-1.8,3.1-2.7C123.5,37.5,124,37,124.6,37.1z"/>
	<path class="st1" d="M280.6,37.1c0.6,0,0.9,0.1,1.2,0.5c1.2,1.4,2.4,2.7,3.7,4.1c0.9,1,0.7,1.9-0.3,2.7c-0.5,0.4-0.9,0.9-1.4,1.3
		c-5.8,5-11.6,10-17.4,15.1c-0.4,0.3-0.7,0.6-1.1,0.9c-0.9,0.6-1.8,0.6-2.6-0.3c-0.8-0.9-1.6-1.7-2.5-2.6c-1-1-1-1.6-0.1-2.7
		c0.3-0.4,0.7-0.7,1-1c5.8-5.5,11.6-11,17.3-16.5C279.2,37.9,279.8,37.2,280.6,37.1z"/>
	<path class="st1" d="M114.6,90.3c-0.8,0-1.6-0.3-2.3-0.7c-6.1-2.9-12.4-5.4-18.7-7.9c-0.7-0.3-1.3-0.6-1.9-1
		c-0.6-0.4-0.9-1.2-0.6-1.9c0.8-1.7,1.6-3.5,2.6-5.1c0.9-1.5,1.6-1.6,3.2-0.9c6.8,3.2,13.6,6.3,20.3,9.5c2.1,1,2.2,1.7,1.2,3.8
		c-0.5,0.9-1,1.8-1.5,2.7C116.5,89.8,115.7,90.3,114.6,90.3z"/>
	<path class="st1" d="M156.2,45.9c0,0.8-0.4,1.2-0.7,1.6c-1.2,1.5-2.8,2.3-4.6,3c-0.9,0.3-1.6,0.1-2.1-0.7c-0.2-0.3-0.3-0.5-0.5-0.8
		c-3.5-5.7-7-11.5-10.4-17.2c-2.1-3.4-1.8-4.5,1.6-6.5c3.9-2.4,4.3-2.3,6.4,1.6c2.9,5.6,6.1,11.1,9.1,16.6
		C155.4,44.3,155.8,45.2,156.2,45.9z"/>
	<path class="st1" d="M238.1,42.3c-1.7-0.5-3.2-1.6-4.8-2.4c-0.4-0.2-0.5-0.8-0.4-1.3c0.1-0.5,0.3-0.9,0.5-1.3
		c3.6-7.1,7.1-14.3,10.7-21.4c0.3-0.6,0.6-1.1,1-1.6c0.4-0.6,1-0.8,1.7-0.5c1.6,0.7,3.3,1.3,4.8,2.1c1.6,0.9,1.8,1.5,0.9,3.1
		c-4,7.2-8,14.4-12,21.6C240.1,41.4,239.4,42.2,238.1,42.3z"/>
	<path class="st1" d="M217.1,33.1c0-0.9,0.4-1.9,0.7-3c1.7-6.3,3.5-12.6,5.3-18.9c0.2-0.5,0.3-1.1,0.5-1.6c0.6-1.6,1.2-2,2.9-1.9
		c1.6,0.1,3.2,0.5,4.6,1.1c1.4,0.5,1.7,1.1,1.2,2.6c-2.4,7.6-4.9,15.2-7.3,22.7c-0.8,2.3-1.2,2.5-3.7,2.2c-0.7-0.1-1.4-0.1-2.1-0.3
		C217.5,35.7,217,35,217.1,33.1z"/>
	<path class="st1" d="M189.4,33.4c0.1,1.5-0.3,2-2.6,2.4c-1,0.2-2,0.4-3.1,0.5c-1.4,0.2-1.9-0.2-2.1-1.6c-0.3-1.7-0.5-3.5-0.7-5.2
		c-0.7-5.3-1.3-10.6-2-15.9c-0.1-0.6-0.1-1.1-0.1-1.7c-0.1-2.4,0.1-2.8,2.4-3.4c1.1-0.3,2.2-0.5,3.3-0.6c2.3-0.3,2.9,0.3,3.1,2.5
		c0.2,3,0.5,6.1,0.8,9.1C188.6,23.8,189,28.2,189.4,33.4z"/>
	<path class="st0" d="M305.3,78.7c-0.1,1-0.4,1.7-1.2,2.1c-0.8,0.5-1.7,0.9-2.6,1.3c-6.8,2.6-13.6,5.2-20.4,7.7
		c-2.5,0.9-2.9,0.7-3.5-2c-0.1-0.4-0.2-0.8-0.3-1.1c-1-2.2-1-2.6,1.6-3.7c7.2-3.1,14.4-6.1,21.6-9.2c0.5-0.2,1-0.4,1.6-0.6
		c0.5-0.1,1-0.1,1.3,0.4C304.3,75.2,305,76.9,305.3,78.7z"/>
	<path class="st0" d="M273.2,75c-0.1,0-0.5,0-0.7-0.2c-1.1-1.2-2.2-2.6-2.6-4.2c-0.2-0.8,0.2-1.4,0.8-1.9c0.8-0.6,1.7-1.3,2.5-1.8
		c5.9-3.9,11.7-7.8,17.6-11.7c0.5-0.3,0.9-0.6,1.4-0.9c1.3-0.6,2-0.4,2.7,0.7c0.9,1.4,1.6,2.9,2.4,4.4c0.4,0.7,0.2,1.2-0.4,1.7
		c-0.3,0.2-0.5,0.3-0.8,0.5c-7,4.3-14.1,8.5-21.1,12.8C274.5,74.7,274,75,273.2,75z"/>
	<path class="st0" d="M280.6,102.1c-0.1-1.7,1-2.2,2.1-2.4c2.9-0.7,5.7-1.4,8.6-2.1c4.9-1.1,9.8-2.1,14.8-3.2
		c2.3-0.5,2.6-0.3,2.8,2.1c0.1,1,0.1,2.1,0.3,3.1c0.4,2.1,0,2.7-2.1,3.1c-2.7,0.5-5.4,0.9-8,1.4c-5.2,0.9-10.4,1.9-15.6,2.8
		c-1.6,0.3-1.6,0.3-2-1.4C281.2,104.4,280.8,103.1,280.6,102.1z"/>
	<path class="st0" d="M294.4,124.7c-3.5,0-7,0.1-10.6,0c-2.9-0.1-3.3-0.7-3-3.5c0.4-3.7,0.6-4,4.5-3.9c6.9,0.2,13.7-0.8,20.5-0.6
		c0.6,0,1.3,0,1.9,0c1.1,0,1.6,0.7,1.5,1.7c-0.2,1.7-0.3,3.3-0.8,5c-0.3,0.9-0.9,1.5-1.9,1.7c-0.9,0.2-1.9,0.2-2.9,0.2
		c-3.1,0-6.2,0-9.4,0C294.4,125.1,294.4,124.9,294.4,124.7z"/>
	<path class="st1" d="M904,327.1c-0.2-0.5-0.1-0.7,0-0.9c3.7-6.2,5.7-12.9,6.9-20c0.3-1.8,0.3-1.8,2.1-1.8c1.6,0,3.2,0,4.8,0
		c1,0,1.2,0.3,1,1.3c-0.8,5-1.6,10.1-2.4,15.1c-0.3,1.7-0.5,3.3-0.8,5c-0.1,0.7-0.2,1.3-1.1,1.3C911,327.1,907.4,327.1,904,327.1z"
		/>
	<path class="st1" d="M741.3,327c0.4-2.4,0.7-4.7,1.1-6.9c0.1-0.7,0.5-0.9,1.2-0.9c1.8,0,3.7-0.1,5.5,0.1c1.7,0.1,2.8,1.3,2.8,3
		c0.1,2.4-1.8,4.6-4.1,4.8c-1.4,0.1-2.9,0.1-4.3,0C742.8,327.1,742.1,327,741.3,327z"/>
	<path class="st1" d="M746.7,311.6c-0.2,0-0.4,0-0.6,0c-2.4,0-2.4,0-2-2.5c0.2-1.1,0.4-2.2,0.5-3.3c0.1-1.1,0.6-1.3,1.6-1.3
		c1,0.1,1.9,0,2.9,0c2.2,0,3.2,0.7,3.5,2.2c0.3,1.9-0.7,3.8-2.4,4.5C749,311.7,747.8,311.5,746.7,311.6z"/>
	<path class="st1" d="M835.1,314.9c0.5-3,0.9-6,1.4-9c0.1-0.9,0.4-1.5,1.5-1.4c1.3,0.1,2.7-0.1,4.1,0.1c2.3,0.2,3.5,1.6,3.6,4
		c0.1,4.1-2.3,6.6-6.4,6.6C837.9,315.1,836.5,315.3,835.1,314.9z"/>
</g>
</svg>
